<?xml version="1.0" standalone="no"?>
<!DOCTYPE svg PUBLIC "-//W3C//DTD SVG 20010904//EN"
 "http://www.w3.org/TR/2001/REC-SVG-20010904/DTD/svg10.dtd">
<svg version="1.0" xmlns="http://www.w3.org/2000/svg"
 width="256.000000pt" height="256.000000pt" viewBox="0 0 256.000000 256.000000" opacity=".33"
 preserveAspectRatio="xMidYMid meet">
<metadata>
Created by potrace 1.10, written by Peter Selinger 2001-2011
</metadata>
<g transform="translate(0.000000,256.000000) scale(0.100000,-0.100000)"
fill="#000000" stroke="none">
<path d="M1095 2231 c-101 -26 -146 -45 -225 -92 -198 -118 -337 -317 -384
-551 -37 -184 -1 -386 102 -561 39 -67 140 -178 213 -234 27 -20 49 -42 49
-48 0 -6 -29 -84 -65 -173 -36 -89 -65 -175 -65 -192 0 -17 9 -39 20 -50 19
-19 33 -20 540 -20 l519 0 21 22 c30 33 25 66 -32 209 -42 104 -60 137 -86
157 -29 22 -36 23 -60 13 -25 -11 -26 -10 -8 4 11 8 23 15 27 15 43 0 256 203
310 295 162 277 155 599 -17 861 -77 117 -171 202 -304 276 -150 83 -386 112
-555 69z m415 -46 c257 -81 448 -279 521 -541 32 -111 32 -286 1 -397 -98
-345 -397 -577 -744 -577 -110 0 -109 1 -72 -71 40 -79 212 -56 386 51 85 53
87 51 157 -121 47 -118 58 -156 50 -170 -9 -18 -32 -19 -529 -19 -497 0 -520
1 -529 19 -8 14 7 61 68 214 l79 196 -43 25 c-143 84 -274 265 -327 452 -31
112 -31 287 1 398 68 243 254 449 477 527 114 40 174 49 299 45 96 -3 137 -9
205 -31z m76 -1504 c-11 -17 -157 -82 -208 -91 -64 -12 -115 -4 -129 21 -7 14
-6 19 3 20 7 0 37 2 67 5 58 3 202 31 236 44 27 12 37 12 31 1z"/>
<path d="M1130 2115 c-82 -18 -208 -81 -282 -140 -208 -164 -301 -461 -224
-713 14 -45 40 -110 58 -144 35 -66 169 -210 223 -240 l31 -17 154 387 c84
213 162 407 172 432 l20 45 59 -153 c32 -84 59 -162 59 -173 0 -11 -14 -47
-31 -81 -69 -137 -158 -392 -173 -499 l-7 -46 59 -6 c72 -8 154 5 250 37 115
40 171 75 264 168 73 73 94 102 132 180 109 228 90 469 -55 688 -69 104 -218
217 -345 259 -88 30 -266 38 -364 16z m353 -34 c70 -23 137 -71 137 -100 0 -9
-20 -26 -45 -40 -50 -26 -105 -82 -131 -133 -14 -27 -8 -23 34 23 62 68 141
107 178 90 35 -16 31 -57 -8 -98 -18 -18 -28 -33 -22 -33 20 0 55 33 74 71 33
63 74 52 123 -32 36 -62 38 -144 4 -181 -29 -31 -99 -72 -152 -88 -57 -18 -70
-34 -20 -26 22 4 82 27 133 52 51 25 100 43 108 40 25 -9 44 -72 45 -144 2
-96 -4 -109 -54 -123 -41 -11 -188 -6 -224 8 -10 4 -14 2 -10 -4 10 -17 99
-33 175 -33 77 0 92 -9 92 -57 0 -71 -106 -243 -150 -243 -9 0 -37 26 -62 58
-46 59 -97 93 -140 91 -20 0 -18 -2 10 -12 71 -26 142 -115 142 -177 0 -45
-121 -140 -179 -140 -20 0 -55 37 -84 90 -10 18 -20 30 -23 27 -3 -2 4 -20 15
-38 40 -66 24 -110 -50 -134 -55 -19 -128 -16 -154 5 -27 23 -15 110 19 132
17 12 49 9 79 -6 15 -8 27 -11 27 -7 0 4 -19 16 -42 27 -34 15 -44 25 -46 48
-5 41 26 116 52 125 36 14 137 -31 199 -87 15 -14 27 -21 27 -16 0 18 -53 60
-122 98 -37 20 -73 46 -79 57 -14 28 -3 82 22 104 19 18 23 18 87 2 81 -19
174 -28 191 -18 7 5 -18 11 -56 14 -82 8 -166 32 -183 52 -16 19 -5 64 18 71
35 11 84 35 80 39 -2 3 -21 0 -42 -6 -34 -9 -41 -8 -60 10 -27 28 -28 91 -1
121 23 26 78 55 150 81 36 13 43 18 25 18 -14 0 -62 -13 -108 -29 -106 -37
-122 -32 -151 46 -21 54 -21 59 -6 110 8 30 25 70 36 89 12 20 19 38 16 41 -9
10 -74 -87 -116 -173 -50 -101 -100 -159 -152 -174 -51 -16 -82 4 -113 74 -13
29 -33 61 -46 72 l-23 20 15 -25 c9 -14 23 -51 32 -83 21 -73 58 -101 123 -91
39 6 43 4 49 -19 9 -39 -22 -122 -57 -152 -37 -31 -86 -33 -122 -5 -14 11 -36
20 -49 19 l-23 0 25 -10 c13 -6 33 -17 43 -26 10 -9 37 -19 60 -23 42 -5 42
-5 41 -48 -1 -42 -20 -74 -56 -93 -10 -6 -42 -3 -88 7 -53 12 -77 14 -93 6
-21 -10 -21 -11 7 -11 86 -2 146 -46 146 -106 0 -40 -25 -113 -47 -137 -23
-25 -44 -23 -91 12 -61 44 -55 100 10 100 20 0 31 -7 38 -22 5 -13 9 -16 9 -8
2 41 -45 59 -91 35 -30 -15 -34 -14 -57 3 -36 27 -82 106 -88 151 -5 34 -2 41
22 57 19 12 47 18 91 18 35 0 61 3 56 8 -11 11 -110 15 -147 5 -52 -13 -70 9
-70 88 0 58 3 69 23 86 58 46 165 48 260 4 63 -29 60 -16 -6 22 -41 25 -57 28
-127 27 -44 -1 -91 -3 -105 -5 -24 -4 -25 -2 -24 47 3 94 62 234 99 234 22 0
29 -20 31 -88 1 -40 8 -70 16 -78 12 -13 14 -6 10 48 -2 35 -11 84 -19 110
-21 60 -7 99 44 123 45 22 94 14 140 -21 35 -27 53 -59 72 -131 7 -25 20 -47
33 -54 19 -10 20 -9 13 7 -4 11 -14 40 -21 67 -17 64 -39 98 -80 126 -43 30
-51 56 -28 88 27 35 102 73 145 73 62 0 80 -23 88 -118 4 -45 12 -87 18 -93 7
-7 8 3 1 39 -15 74 4 154 45 188 29 24 36 26 102 21 38 -3 100 -15 138 -26z"/>
</g>
</svg>
